<svg width="900" height="400" viewBox="0 0 900 400" fill="none" xmlns="http://www.w3.org/2000/svg">
<path fill-rule="evenodd" clip-rule="evenodd" d="M54.8837 17C46.6637 17 40 23.6637 40 31.8837C40 40.1037 46.6637 46.7674 54.8837 46.7674H57.1163C65.3363 46.7674 72 40.1037 72 31.8837C72 23.6637 65.3363 17 57.1163 17H54.8837ZM24.7164 45.9553C41.3715 45.9553 54.8731 58.5149 54.8731 74.008V97H39.8731V74.008C39.8731 72.358 39.5685 70.7743 39.0086 69.3028L16.9757 89.7985L6.3691 79.9319L27.6168 60.1666C26.678 59.9974 25.7083 59.9087 24.7164 59.9087H0V45.9553H24.7164ZM87.6567 45.9553C71.0016 45.9553 57.5 58.5149 57.5 74.008V97H72.5V74.008C72.5 72.7155 72.687 71.4636 73.0371 70.2745L96.0851 91.7145L106.692 81.8479L83.644 60.4082C84.9221 60.0826 86.2676 59.9087 87.6567 59.9087H112.373V45.9553H87.6567Z" fill="#0050FF"/>
<path d="M137.36 95C134.864 86.808 132.336 78.552 129.776 70.232C127.28 61.848 124.784 53.56 122.288 45.368C124.912 45.368 127.568 45.368 130.256 45.368C133.008 45.368 135.696 45.368 138.32 45.368C139.6 49.848 140.88 54.392 142.16 59C143.504 63.544 144.784 68.056 146 72.536C147.088 68.056 148.176 63.544 149.264 59C150.416 54.392 151.504 49.848 152.528 45.368C154.768 45.368 157.008 45.368 159.248 45.368C161.552 45.368 163.824 45.368 166.064 45.368C167.152 49.848 168.24 54.424 169.328 59.096C170.48 63.704 171.568 68.28 172.592 72.824C173.872 68.28 175.152 63.704 176.432 59.096C177.776 54.424 179.056 49.848 180.272 45.368C182.896 45.368 185.52 45.368 188.144 45.368C190.832 45.368 193.456 45.368 196.016 45.368C193.52 53.56 190.992 61.848 188.432 70.232C185.936 78.552 183.44 86.808 180.944 95C178.384 95 175.792 95 173.168 95C170.544 95 167.952 95 165.392 95C164.368 91.032 163.312 87.032 162.224 83C161.2 78.968 160.176 75 159.152 71.096C158.128 75 157.072 78.968 155.984 83C154.96 87.032 153.936 91.032 152.912 95C150.352 95 147.76 95 145.136 95C142.512 95 139.92 95 137.36 95ZM224.206 96.536C220.494 96.536 217.038 95.896 213.838 94.616C210.638 93.272 207.854 91.416 205.486 89.048C203.118 86.616 201.262 83.8 199.918 80.6C198.638 77.4 197.998 73.912 197.998 70.136C197.998 66.36 198.638 62.872 199.918 59.672C201.262 56.472 203.118 53.688 205.486 51.32C207.854 48.952 210.638 47.128 213.838 45.848C217.038 44.504 220.494 43.832 224.206 43.832C227.982 43.832 231.438 44.504 234.574 45.848C237.774 47.128 240.558 48.952 242.926 51.32C245.294 53.688 247.118 56.472 248.398 59.672C249.742 62.872 250.414 66.36 250.414 70.136C250.414 73.912 249.742 77.4 248.398 80.6C247.118 83.8 245.294 86.616 242.926 89.048C240.558 91.416 237.774 93.272 234.574 94.616C231.438 95.896 227.982 96.536 224.206 96.536ZM224.206 82.232C227.342 82.232 229.838 81.112 231.694 78.872C233.614 76.568 234.574 73.656 234.574 70.136C234.574 66.552 233.614 63.672 231.694 61.496C229.838 59.256 227.342 58.136 224.206 58.136C221.07 58.136 218.542 59.256 216.622 61.496C214.766 63.672 213.838 66.552 213.838 70.136C213.838 73.656 214.766 76.568 216.622 78.872C218.542 81.112 221.07 82.232 224.206 82.232ZM258.249 95C258.249 86.808 258.249 78.552 258.249 70.232C258.249 61.848 258.249 53.56 258.249 45.368C260.873 45.368 263.529 45.368 266.217 45.368C268.905 45.368 271.529 45.368 274.089 45.368C274.089 45.816 274.089 46.264 274.089 46.712C274.089 47.16 274.089 47.608 274.089 48.056C276.073 46.648 278.313 45.592 280.809 44.888C283.305 44.184 286.025 43.992 288.969 44.312C288.969 46.872 288.969 49.464 288.969 52.088C288.969 54.712 288.969 57.304 288.969 59.864C283.913 59.16 280.169 59.608 277.737 61.208C275.305 62.744 274.089 65.272 274.089 68.792C274.089 73.08 274.089 77.432 274.089 81.848C274.089 86.264 274.089 90.648 274.089 95C271.529 95 268.905 95 266.217 95C263.529 95 260.873 95 258.249 95ZM296.604 95C296.604 83.416 296.604 71.736 296.604 59.96C296.604 48.184 296.604 36.504 296.604 24.92C299.228 24.92 301.884 24.92 304.572 24.92C307.26 24.92 309.884 24.92 312.444 24.92C312.444 31.192 312.444 37.56 312.444 44.024C312.444 50.488 312.444 56.856 312.444 63.128C314.748 60.184 317.052 57.24 319.356 54.296C321.66 51.288 323.964 48.312 326.268 45.368C329.34 45.368 332.412 45.368 335.484 45.368C338.62 45.368 341.724 45.368 344.796 45.368C341.788 49.144 338.716 52.952 335.58 56.792C332.508 60.632 329.468 64.44 326.46 68.216C329.66 72.632 332.86 77.112 336.06 81.656C339.324 86.136 342.524 90.584 345.66 95C342.524 95 339.388 95 336.252 95C333.116 95 329.98 95 326.844 95C324.476 91.608 322.076 88.184 319.644 84.728C317.212 81.208 314.812 77.752 312.444 74.36C312.444 77.752 312.444 81.208 312.444 84.728C312.444 88.184 312.444 91.608 312.444 95C309.884 95 307.26 95 304.572 95C301.884 95 299.228 95 296.604 95ZM359.416 39.704C357.56 39.704 355.864 39.256 354.328 38.36C352.856 37.464 351.672 36.28 350.776 34.808C349.88 33.336 349.432 31.704 349.432 29.912C349.432 28.12 349.88 26.52 350.776 25.112C351.672 23.64 352.856 22.456 354.328 21.56C355.864 20.664 357.56 20.216 359.416 20.216C361.208 20.216 362.84 20.664 364.312 21.56C365.848 22.456 367.064 23.64 367.96 25.112C368.856 26.52 369.304 28.12 369.304 29.912C369.304 31.704 368.856 33.336 367.96 34.808C367.064 36.28 365.848 37.464 364.312 38.36C362.84 39.256 361.208 39.704 359.416 39.704ZM351.448 95C351.448 86.808 351.448 78.552 351.448 70.232C351.448 61.848 351.448 53.56 351.448 45.368C354.072 45.368 356.728 45.368 359.416 45.368C362.104 45.368 364.728 45.368 367.288 45.368C367.288 53.56 367.288 61.848 367.288 70.232C367.288 78.552 367.288 86.808 367.288 95C364.728 95 362.104 95 359.416 95C356.728 95 354.072 95 351.448 95ZM375.751 59.576C375.751 57.208 375.751 54.84 375.751 52.472C375.751 50.104 375.751 47.736 375.751 45.368C377.031 45.368 378.311 45.368 379.591 45.368C380.935 45.368 382.247 45.368 383.527 45.368C383.527 45.048 383.527 44.76 383.527 44.504C383.527 44.248 383.527 43.992 383.527 43.736C383.527 39.448 384.391 35.864 386.119 32.984C387.911 30.04 390.247 27.8 393.127 26.264C396.071 24.664 399.271 23.768 402.727 23.576C406.247 23.32 409.735 23.768 413.191 24.92C413.191 27.288 413.191 29.72 413.191 32.216C413.191 34.712 413.191 37.176 413.191 39.608C409.351 38.328 406.087 38.072 403.399 38.84C400.711 39.608 399.367 41.272 399.367 43.832C399.367 44.088 399.367 44.344 399.367 44.6C399.367 44.856 399.367 45.112 399.367 45.368C401.351 45.368 403.335 45.368 405.319 45.368C407.303 45.368 409.287 45.368 411.271 45.368C411.271 47.736 411.271 50.104 411.271 52.472C411.271 54.84 411.271 57.208 411.271 59.576C409.287 59.576 407.303 59.576 405.319 59.576C403.335 59.576 401.351 59.576 399.367 59.576C399.367 65.4 399.367 71.288 399.367 77.24C399.367 83.192 399.367 89.112 399.367 95C396.807 95 394.183 95 391.495 95C388.807 95 386.151 95 383.527 95C383.527 89.112 383.527 83.192 383.527 77.24C383.527 71.288 383.527 65.4 383.527 59.576C382.247 59.576 380.935 59.576 379.591 59.576C378.311 59.576 377.031 59.576 375.751 59.576ZM424.013 110.36C425.293 106.968 426.605 103.544 427.949 100.088C429.357 96.696 430.701 93.336 431.981 90.008C428.973 82.648 425.901 75.224 422.765 67.736C419.693 60.184 416.653 52.728 413.645 45.368C416.461 45.368 419.277 45.368 422.093 45.368C424.909 45.368 427.693 45.368 430.445 45.368C432.109 49.464 433.773 53.624 435.437 57.848C437.165 62.072 438.861 66.264 440.525 70.424C442.061 66.264 443.629 62.072 445.229 57.848C446.829 53.624 448.397 49.464 449.933 45.368C452.685 45.368 455.437 45.368 458.189 45.368C460.941 45.368 463.693 45.368 466.445 45.368C462.157 56.056 457.837 66.904 453.485 77.912C449.197 88.856 444.909 99.672 440.621 110.36C437.869 110.36 435.085 110.36 432.269 110.36C429.517 110.36 426.765 110.36 424.013 110.36Z" fill="black"/>
<path d="M224.344 78.024C223.107 78.024 221.955 77.7253 220.888 77.128C219.864 76.5307 219.053 75.72 218.456 74.696C217.859 73.672 217.56 72.5627 217.56 71.368C217.56 70.1733 217.859 69.0853 218.456 68.104C219.053 67.08 219.864 66.2693 220.888 65.672C221.955 65.0747 223.107 64.776 224.344 64.776C225.581 64.776 226.691 65.0747 227.672 65.672C228.696 66.2693 229.507 67.08 230.104 68.104C230.744 69.0853 231.064 70.1733 231.064 71.368C231.064 72.5627 230.744 73.672 230.104 74.696C229.507 75.72 228.696 76.5307 227.672 77.128C226.691 77.7253 225.581 78.024 224.344 78.024Z" fill="black"/>
</svg>
